<?xml version="1.0" encoding="UTF-8"?>
<svg id="a" data-name="Capa 1" xmlns="http://www.w3.org/2000/svg" viewBox="0 0 1653.97 503">
  <defs>
    <style>
      .b {
        fill: #ddcbbf;
      }

      .b, .c {
        fill-rule: evenodd;
      }

      .c {
        fill: #9b8170;
      }
    </style>
  </defs>
  <path class="b" d="M1015.62,389.32c-94.23,69.46-230.82,106.51-348.41,106.51-164.89,0-313.33-60.99-425.63-162.42-8.82-7.97-.92-18.85,9.67-12.64,121.2,70.52,271.05,112.94,425.85,112.94,104.39,0,219.24-21.6,324.84-66.42,15.95-6.78,29.29,10.45,13.69,22.02"/>
  <path class="b" d="M1054.79,344.5c-12-15.39-79.62-7.27-109.97-3.67-9.25,1.13-10.66-6.92-2.33-12.71,53.86-37.9,142.23-26.96,152.54-14.26,10.3,12.78-2.6801,101.36-53.29,143.64-7.76,6.49-15.1801,3.04-11.72-5.57,11.36-28.38,36.85-91.97,24.78-107.43"/>
  <path class="c" d="M946.94,60.53V23.69c0-5.58,4.24-9.32,9.32-9.32h164.96c5.29,0,9.53,3.81,9.53,9.32v31.55c-.0699,5.29-4.52,12.21-12.4301,23.15l-85.48,122.04c31.76-.78,65.29,3.95,94.09,20.19,6.49,3.67,8.26,9.03,8.75,14.33v39.31c0,5.37-5.9301,11.65-12.14,8.4-50.75-26.61-118.16-29.5-174.28.28-5.72,3.11-11.71-3.1-11.71-8.47v-37.34c0-6,.07-16.24,6.07-25.34l99.03-142.02h-86.19c-5.29,0-9.53-3.74-9.53-9.25M345.19,290.43h-50.19c-4.8-.35-8.61-3.95-8.97-8.54V24.32c0-5.15,4.31-9.25,9.67-9.25h46.8c4.87.21,8.75,3.95,9.11,8.61v33.67h.92c12.21-32.54,35.15-47.71,66.07-47.71s51.03,15.17,65.15,47.71c12.14-32.54,39.74-47.71,69.32-47.71,21.03,0,44.04,8.68,58.09,28.16,15.88,21.67,12.64,53.15,12.64,80.75l-.07,162.56c0,5.15-4.31,9.32-9.67,9.32h-50.12c-5.01-.35-9.04-4.38-9.04-9.32v-136.52c0-10.87.99-37.98-1.41-48.28-3.74-17.29-14.96-22.16-29.51-22.16-12.14,0-24.85,8.12-30,21.11s-4.66,34.73-4.66,49.34v136.51c0,5.15-4.31,9.32-9.67,9.32h-50.12c-5.08-.35-9.04-4.38-9.04-9.32l-.07-136.51c0-28.73,4.73-71.01-30.92-71.01s-34.66,41.22-34.66,71.01v136.51c0,5.15-4.31,9.32-9.67,9.32M1272.76,9.64c74.47,0,114.77,63.95,114.77,145.26s-44.54,140.89-114.77,140.89-112.9399-63.95-112.9399-143.64,40.3-142.51,112.9399-142.51M1273.1801,62.22c-36.99,0-39.3199,50.4-39.3199,81.81s-.49,98.68,38.89,98.68,40.73-54.21,40.73-87.24c0-21.74-.92-47.72-7.48-68.33-5.65-17.93-16.87-24.92-32.8199-24.92M1484.09,290.43h-49.98c-5.01-.35-9.04-4.38-9.04-9.32l-.0699-257.64c.4301-4.73,4.59-8.4,9.67-8.4h46.52c4.38.21,7.97,3.18,8.97,7.2v39.39h.92c14.05-35.22,33.74-52.02,68.4-52.02,22.52,0,44.47,8.11,58.59,30.35,13.13,20.61,13.13,55.27,13.13,80.18v162.13c-.5699,4.52-4.73,8.12-9.67,8.12h-50.33c-4.59-.35-8.4-3.74-8.89-8.12v-139.9c0-28.16,3.25-69.38-31.41-69.38-12.21,0-23.4301,8.18-29.01,20.61-7.0601,15.74-7.97,31.41-7.97,48.77v138.7c-.0699,5.15-4.45,9.32-9.8101,9.32M815.43,167.4c0,19.55.5,35.85-9.39,53.22-7.98,14.12-20.68,22.8-34.73,22.8-19.27,0-30.56-14.68-30.56-36.35,0-42.77,38.33-50.54,74.68-50.54v10.87ZM866.05,289.72c-3.32,2.96-8.12,3.18-11.86,1.2-16.66-13.84-19.69-20.26-28.8-33.46-27.53,28.09-47.08,36.49-82.73,36.49-42.28,0-75.1-26.05-75.1-78.21,0-40.73,22.02-68.47,53.51-82.02,27.25-12,65.29-14.12,94.37-17.44v-6.49c0-11.93.92-26.05-6.14-36.35-6.07-9.25-17.79-13.06-28.16-13.06-19.13,0-36.14,9.81-40.3,30.14-.85,4.52-4.17,8.97-8.76,9.18l-48.63-5.22c-4.09-.92-8.68-4.24-7.48-10.52,11.15-59.01,64.51-76.8,112.23-76.8,24.42,0,56.32,6.49,75.6,24.99,24.42,22.8,22.09,53.22,22.09,86.33v78.21c0,23.5,9.74,33.81,18.92,46.52,3.18,4.52,3.88,9.95-.21,13.34-10.23,8.54-28.44,24.42-38.47,33.32l-.07-.14-.01-.01ZM157.51,167.4c0,19.55.5,35.85-9.39,53.22-7.98,14.12-20.61,22.8-34.73,22.8-19.27,0-30.49-14.68-30.49-36.35,0-42.77,38.33-50.54,74.61-50.54v10.87h0ZM208.12,289.72c-3.32,2.96-8.12,3.18-11.86,1.2-16.66-13.84-19.62-20.26-28.8-33.46-27.53,28.09-47.01,36.49-82.73,36.49-42.21,0-75.1-26.05-75.1-78.21,0-40.73,22.09-68.47,53.5-82.02,27.25-12,65.29-14.12,94.37-17.44v-6.49c0-11.93.92-26.05-6.07-36.35-6.14-9.25-17.86-13.06-28.16-13.06-19.13,0-36.21,9.81-40.38,30.14-.85,4.52-4.17,8.97-8.68,9.18l-48.71-5.22c-4.09-.92-8.61-4.24-7.48-10.52C29.26,24.96,82.55,7.17,130.26,7.17c24.42,0,56.32,6.49,75.6,24.99,24.42,22.8,22.09,53.22,22.09,86.33v78.21c0,23.5,9.74,33.81,18.92,46.52,3.25,4.52,3.95,9.95-.14,13.34-10.23,8.54-28.44,24.42-38.47,33.32l-.14-.14v-.02Z"/>
</svg>