<?xml version="1.0" encoding="UTF-8"?>
<svg id="a" data-name="Capa 1" xmlns="http://www.w3.org/2000/svg" viewBox="0 0 567.5159 141.5917">
  <defs>
    <style>
      .b {
        fill: #e6e0db;
      }

      .b, .c {
        fill-rule: evenodd;
      }

      .c {
        fill: #bba99e;
      }
    </style>
  </defs>
  <path class="c" d="M9.9191,8.6743h8.8086v90.0542s0,6.4795,5.8081,6.4795h47.3277v9.7646H20.3913s-10.4927-.0137-10.4927-11.6357c0-11.4766.0205-94.6626.0205-94.6626h0Z"/>
  <path class="c" d="M22.0822,8.6743h8.7813v77.2329s-.6241,5.9951,5.0937,5.9804c28.2969-.0273,35.8647,0,35.8647,0v9.6543H27.2385s-5.1978-.3955-5.1563-5.7314c.0347-3.7842,0-87.1362,0-87.1362h0Z"/>
  <path class="c" d="M34.176,8.6743h8.8291l.0141,65.333s-.5058,4.4497,3.687,4.4497h25.1573l-.0416,9.6953h-33.8828s-3.7631-.7485-3.7631-5.2603V8.6743h0Z"/>
  <path class="c" d="M46.3112,8.6743h8.8433v52.7265s-.5616,3.7359,3.292,3.7359h13.417v9.6538h-20.417c-3.6387,0-5.1353-1.1021-5.1353-4.8169V8.6743h0Z"/>
  <path class="b" d="M120.3073,114.8554h-8.8154l.0483-90.0537s0-6.4805-5.8144-6.4805c-5.4405,0-47.3213-.0136-47.3213-.0136v-9.7862l51.4726.0352s10.4854.0273,10.4854,11.6357c-.0137,11.4771-.0552,94.6631-.0552,94.6631h0Z"/>
  <path class="b" d="M108.1374,114.8554h-8.7808l.0274-77.2324s.6103-6.002-5.1075-5.9814c-28.269.0136-35.8442-.0415-35.8442-.0415l.0142-9.6265,44.5693.0137s5.2119.3955,5.1699,5.7314c-.0346,3.7842-.0483,87.1367-.0483,87.1367h0Z"/>
  <path class="b" d="M96.0436,114.8554l-8.8432-.0136.0346-65.3194s.4991-4.4492-3.6938-4.4492c-7.4985,0-25.1572-.0142-25.1572-.0142l.0483-9.7026,33.876.0137s3.77.7558,3.77,5.2534c0,4.1304-.0347,74.2319-.0347,74.2319h0Z"/>
  <path class="b" d="M83.8947,114.8418h-8.8291l.0342-52.7198s.5478-3.7427-3.2988-3.7427h-13.417v-9.6538l20.417.0137c3.6455,0,5.1425,1.1016,5.1425,4.8027,0,4.0611-.0488,61.2999-.0488,61.2999h0Z"/>
  <polygon class="c" points="209.758 30.602 218.7678 30.602 218.7678 40.7343 209.758 40.7343 209.758 30.602 209.758 30.602"/>
  <polygon class="c" points="209.758 52.7031 218.7678 52.7031 218.7678 114.9726 209.758 114.9726 209.758 52.7031 209.758 52.7031"/>
  <polygon class="c" points="529.2092 30.4912 538.2394 30.4912 538.2394 114.9726 529.2092 114.9726 529.2092 30.4912 529.2092 30.4912"/>
  <polygon class="c" points="269.0964 52.7031 250.925 102.8242 232.7531 52.7031 222.4616 52.7031 245.0412 114.9726 256.8088 114.9726 279.3879 52.7031 269.0964 52.7031 269.0964 52.7031"/>
  <path class="c" d="M184.3097,105.0761c-3.0356,0-5.3364-2.6816-5.3364-6.0224V30.602h-9.0234v70.0669c0,7.873,5.6831,14.2412,12.8696,14.2412h23.6607v-9.834h-22.1705Z"/>
  <path class="c" d="M355.3664,62.7382c-3.0361,0-5.3369,2.6827-5.3369,6.0225v46.4482h-9.0235v-48.0903c0-7.8452,5.6836-14.228,12.8633-14.228h9.4883v9.8476h-7.9912Z"/>
  <path class="c" d="M336.2453,84.5419v-1.913c0-17.9571-13.3682-32.5523-29.794-32.5523s-29.7592,14.5952-29.7592,32.5523c0,17.9433,13.3413,32.5449,29.7592,32.5449,13.8614,0,25.6915-10.1807,28.9415-24.8311h-8.7393c-3.001,9.3838-11.0811,15.6973-20.2022,15.6973-11.0683,0-20.2578-9.1201-21.3457-21.4981h51.1397ZM286.0832,75.3935c3.0078-9.8691,11.2822-16.1894,20.3681-16.1894,9.0928,0,17.3536,6.3203,20.3545,16.1894h-40.7226Z"/>
  <path class="c" d="M494.6603,49.7231c-10.8105,0-20.3056,6.2515-25.6142,15.6353-5.3018-9.3838-14.7901-15.6353-25.6143-15.6353s-20.3066,6.2515-25.6015,15.6353c-5.3155-9.3838-14.8038-15.6353-25.6153-15.6353-16.6328,0-30.1123,14.7339-30.1123,32.9058v53.4609h9.1065v-29.9111c5.413,5.7724,12.8212,9.3418,21.0058,9.3418,10.8115,0,20.2998-6.251,25.6153-15.628,5.2949,9.377,14.7753,15.628,25.6015,15.628s20.3125-6.251,25.6143-15.628c5.3086,9.377,14.8037,15.628,25.6142,15.628,16.6338,0,30.0996-14.7276,30.0996-32.8916s-13.4658-32.9058-30.0996-32.9058h0ZM392.215,105.6865c-11.6289,0-21.0957-10.3467-21.0957-23.0576,0-12.7246,9.4668-23.0713,21.0957-23.0713,11.6094,0,21.0762,10.3467,21.0762,23.0713,0,12.7109-9.4668,23.0576-21.0762,23.0576h0ZM443.4318,105.6865c-11.6162,0-21.083-10.3467-21.083-23.0576,0-12.7246,9.4668-23.0713,21.083-23.0713,11.6358,0,21.1026,10.3467,21.1026,23.0713,0,12.7109-9.4668,23.0576-21.1026,23.0576h0ZM494.6603,105.6865c-11.6152,0-21.082-10.3467-21.082-23.0576,0-12.7246,9.4668-23.0713,21.082-23.0713,11.6367,0,21.1035,10.3467,21.1035,23.0713,0,12.7109-9.4668,23.0576-21.1035,23.0576h0Z"/>
  <path class="c" d="M549.3693,45.288c-3.9775,0-7.1797-3.5141-7.1797-7.8872,0-4.3452,3.2022-7.852,7.1797-7.852,3.9922,0,7.208,3.5068,7.208,7.852,0,4.3731-3.2158,7.8872-7.208,7.8872h0ZM549.3693,30.8584c-3.3262,0-6.0078,2.9316-6.0078,6.5424,0,3.6382,2.6816,6.5909,6.0078,6.5909,3.3408,0,6.0371-2.9527,6.0371-6.5909,0-3.6108-2.6963-6.5424-6.0371-6.5424h0ZM546.2306,33.3046h3.4092c1.9268,0,2.5645,1.3174,2.5645,2.232,0,1.3725-.8877,2.3564-2.211,2.4394v.0484c.6729.25,1.1573.9638,1.8018,2.1001l.9434,1.6494h-1.5254l-.6856-1.3238c-.9775-1.9125-1.3447-2.2592-2.3154-2.2592h-.7344v3.583h-1.2471v-8.4693h0ZM549.2795,37.0058c.957,0,1.6015-.4018,1.6015-1.289,0-.7623-.5683-1.2476-1.373-1.2476h-2.0303v2.5366h1.8018Z"/>
</svg>