<?xml version="1.0" encoding="UTF-8"?>
<svg id="a" data-name="Capa 1" xmlns="http://www.w3.org/2000/svg" viewBox="0 0 154.0892 85.0394">
  <defs>
    <style>
      .b {
        fill: #ededed;
      }
    </style>
  </defs>
  <path class="b" d="M70.3136,26.0791c11.6532-2.4384,22.7674-8.3338,29.6194-18.2605.1752-.1925.7988-.2064.7345.184-.0593.4779-2.2481,2.9727-2.7353,3.5286-6.4939,7.41-14.524,12.5081-23.9006,15.5293-.6653.2144-4.3239,1.0989-4.5053,1.284-.6108.6234-.3782,5.2427.3253,6.1827,1.4507-.4661,2.8459-1.0231,4.3439-1.3571,1.6698-.3723,6.5236-1.3605,6.9035,1.1346.4191,2.7527-3.268,4.4376-5.5464,4.6037-1.8553.1353-3.3573-.3545-5.0888-.872-4.7425,3.4922-9.17,7.7279-12.9768,12.2221-4.9847,5.8848-14.9106,19.2861-8.8461,26.8322,5.0634,6.3005,16.0528,2.7205,22.0918-.2868,10.5268-5.2422,22.5333-16.8809,23.5189-29.2108.0597-.7467-.39-3.254.7094-2.5838.5407,10.4866-6.7155,20.0838-14.4026,26.4429-8.0031,6.6205-25.7922,16.6645-34.421,6.4209-5.7251-6.7965-1.4706-17.7624,2.5184-24.3978,4.6316-7.7041,11.4924-13.7478,19.3099-18.0942-1.147-1.9542-1.4896-4.2469-1.4085-6.4838-3.8907.7597-7.8541,1.2745-11.8139,1.5625-9.7967.7125-19.8257-.2635-29.5515.9597-8.8099,1.1081-17.8195,5.081-21.8643,13.4164l-.7644-.2184c6.0786-11.7728,19.482-14.2197,31.5295-15.4064,10.9244-1.0761,21.9949-.6403,32.8265-2.4998,3.4143-11.2704,13.5458-19.498,24.6404-22.6485,2.4033-.6825,7.4864-2.0654,9.6889-.7026.2918.1805.8201.5766.3619.8983-.1956.1374-1.8686-.4105-2.4201-.4017-3.8857.0618-11.1254,4.6438-14.3745,6.9184-5.6491,3.9548-11.3733,9.0878-14.5019,15.3037ZM72.348,37.0315c2.0912.9537,7.3171.7733,8.03-1.9058.5278-1.9834-2.4729-.9552-3.4594-.6406-1.1809.3766-2.6727,1.0967-3.7368,1.7396-.1824.1102-1.0298.546-.8337.8069Z"/>
  <path class="b" d="M86.2739,49.5499c-.2631-.264.8124-1.7192,1.0298-2.0198,10.6781-14.7592,36.0753-6.6717,51.2246-13.2403,5.5363-2.4005,9.4322-6.4649,12.603-11.4946.5357.0827.42.4982.2671.8949-.2238.5804-1.559,2.3818-2.0074,2.9991-6.1688,8.4908-14.7293,12.8102-25.1758,13.6283-12.5025.979-29.458-3.9555-37.2258,9.0886l-.7153.1438Z"/>
</svg>